<svg version="1.1" viewBox="0.0 0.0 960.0 540.0" fill="none" stroke="none" stroke-linecap="square" stroke-miterlimit="10" xmlns:xlink="http://www.w3.org/1999/xlink" xmlns="http://www.w3.org/2000/svg"><clipPath id="g2b613efe0c4_0_127.0"><path d="m0 0l960.0 0l0 540.0l-960.0 0l0 -540.0z" clip-rule="nonzero"/></clipPath><g clip-path="url(#g2b613efe0c4_0_127.0)"><path fill="#dcf0fa" d="m0 0l960.0 0l0 540.0l-960.0 0z" fill-rule="evenodd"/><path fill="#000000" fill-opacity="0.0" d="m0.015748031 0l960.0 0l0 497.95276l-960.0 0z" fill-rule="evenodd"/><path fill="#f06e5a" d="m32.484497 152.02325l54.078125 0q30.796875 0 45.5 12.140625q14.703125 12.125 14.703125 36.609375q0 11.125 -3.09375 19.390625q-3.09375 8.25 -6.9375 13.859375q-4.375 6.4375 -6.0 5.640625q1.578125 -1.203125 7.796875 2.953125q6.21875 4.140625 11.046875 10.1875q4.828125 6.046875 7.671875 14.265625q2.859375 8.21875 2.859375 19.03125q0 11.75 -3.25 22.515625q-3.25 10.75 -11.078125 18.890625q-7.828125 8.140625 -20.359375 12.8125q-12.53125 4.65625 -30.59375 4.65625l-62.34375 0l0 -192.95312zm33.484375 78.9375l37.0625 0q1.4375 -1.140625 3.921875 -5.171875q2.34375 -3.515625 4.203125 -8.734375q1.859375 -5.234375 1.859375 -12.8125q0 -12.78125 -6.203125 -16.953125q-6.203125 -4.171875 -19.1875 -4.171875l-21.65625 0l0 47.84375zm0 82.921875l30.71875 0q15.265625 0 22.453125 -7.40625q7.203125 -7.421875 7.203125 -20.375q0 -5.828125 -1.40625 -10.34375q-1.390625 -4.53125 -4.703125 -7.734375q-3.296875 -3.203125 -9.46875 -5.25q-6.171875 -2.0625 -15.9375 -2.0625l-28.859375 0l0 53.171875zm165.42104 -161.85938l35.67186 0l66.1875 192.95312l-34.984375 0l-16.0 -48.53125l-65.85936 0l-16.265625 48.53125l-34.953125 0l66.203125 -192.95312zm40.07811 112.0l-22.51561 -84.03125l0.796875 0l-22.75 84.03125l44.468735 0zm77.00403 -112.0l33.484375 0l0 75.1875l68.265625 -75.1875l43.0625 0l-75.25 82.140625l84.515625 110.8125l-41.953125 0l-65.625 -85.953125l-13.015625 14.28125l0 71.671875l-33.484375 0l0 -192.95312zm158.92706 0l122.546875 0l0 31.625l-89.0625 0l0 47.03125l82.671875 0l0 31.09375l-82.671875 0l0 51.578125l91.734375 0l0 31.625l-125.21875 0l0 -192.95312zm150.3941 0l50.34375 0q15.25 0 28.21875 2.703125q12.96875 2.703125 22.578125 9.46875q9.625 6.765625 14.71875 17.859375q5.09375 11.09375 5.09375 27.296875q-0.28125 17.875 -6.1875 29.234375q-5.90625 11.359375 -14.53125 18.34375q-8.609375 6.984375 -20.65625 5.4375l0.578125 -0.53125q3.90625 -2.125 6.296875 0.828125q2.390625 2.953125 4.046875 5.15625l58.15625 77.15625l-40.328125 0l-52.796875 -72.265625l-22.046875 0l0 72.265625l-33.484375 0l0 -192.95312zm87.1875 60.90625q0 -10.03125 -2.296875 -15.8125q-2.28125 -5.796875 -6.546875 -8.703125q-4.25 -2.90625 -11.421875 -4.09375q-7.171875 -1.203125 -16.84375 -1.203125l-16.59375 0l0 58.5l20.859375 0q9.390625 0 15.53125 -2.265625q6.15625 -2.28125 9.828125 -6.046875q3.671875 -3.78125 5.453125 -8.9375q1.796875 -5.15625 2.03125 -11.4375zm101.86578 61.6875l-61.578125 -122.59375l37.21875 0l41.125 81.53125l41.375 -81.53125l37.203125 0l-61.578125 122.59375l0 70.359375l-33.765625 0l0 -70.359375z" fill-rule="nonzero"/></g></svg>