<svg version="1.1" viewBox="0.0 0.0 960.0 540.0" fill="none" stroke="none" stroke-linecap="square"
    stroke-miterlimit="10" xmlns:xlink="http://www.w3.org/1999/xlink"
    xmlns="http://www.w3.org/2000/svg">
    <clipPath id="g2b613efe0c4_0_127.0">
        <path d="m0 0l960.0 0l0 540.0l-960.0 0l0 -540.0z" clip-rule="nonzero" />
    </clipPath>
    <g clip-path="url(#g2b613efe0c4_0_127.0)">
        <path fill="#004834" d="m0 0l960.0 0l0 540.0l-960.0 0z" fill-rule="evenodd" />
        <path fill="#000000" fill-opacity="0.0" d="m0.015748031 0l960.0 0l0 497.95276l-960.0 0z"
            fill-rule="evenodd" />
        <path fill="#f2a113"
            d="m32.296997 121.38452l26.25 -2.953125l0 97.75q7.21875 -4.921875 15.078125 -8.53125q6.5625 -3.28125 14.765625 -6.0625q8.203125 -2.796875 16.40625 -2.796875q13.4375 0 25.40625 5.25q11.984375 5.25 21.0 15.75q9.015625 10.484375 14.265625 26.5625q5.25 16.078125 5.25 38.046875q0 24.265625 -6.734375 40.84375q-6.71875 16.5625 -18.03125 26.734375q-11.3125 10.15625 -25.75 14.75q-14.421875 4.59375 -29.515625 4.59375q-15.09375 0 -26.078125 -2.140625q-10.984375 -2.125 -18.203125 -4.75q-8.53125 -3.28125 -14.109375 -7.21875l0 -235.82812zm26.25 221.40625q4.265625 1.640625 9.171875 2.78125q4.921875 1.140625 10.65625 1.96875q5.75 0.8125 12.3125 0.8125q15.09375 0 25.25 -4.25q10.171875 -4.265625 16.078125 -12.46875q5.90625 -8.203125 8.359375 -19.84375q2.46875 -11.640625 2.46875 -26.078125q0 -11.484375 -2.46875 -22.953125q-2.453125 -11.484375 -7.703125 -20.5q-5.25 -9.03125 -12.96875 -14.765625q-7.703125 -5.734375 -17.859375 -5.734375q-6.890625 0 -14.4375 2.78125q-7.546875 2.78125 -14.109375 6.390625q-7.53125 3.9375 -14.75 8.859375l0 103.0zm242.38593 -51.5q-6.5625 0.328125 -12.46875 0.65625q-5.890625 0.328125 -11.640625 0.828125q-5.734375 0.484375 -10.328125 1.140625q-23.60939 2.953125 -33.45314 10.328125q-9.84375 7.375 -9.84375 21.15625q0 11.484375 7.046875 17.21875q7.0625 5.734375 18.53125 5.734375q15.750015 0 28.04689 -5.40625q12.296875 -5.40625 24.109375 -14.265625l0 -37.390625zm-0.328125 60.34375q-15.40625 8.859375 -28.703125 14.28125q-13.28125 5.40625 -28.687515 5.40625q-21.984375 0 -34.9375 -10.65625q-12.953125 -10.671875 -12.953125 -35.265625q0 -12.796875 6.546875 -22.296875q6.5625 -9.515625 17.21875 -15.90625q10.671875 -6.40625 24.109375 -10.015625q13.45314 -3.609375 27.562515 -4.59375q5.90625 -0.65625 15.40625 -1.140625q9.515625 -0.5 14.765625 -0.828125q0 -11.46875 -0.65625 -20.484375q-0.65625 -9.03125 -3.9375 -15.421875q-3.28125 -6.40625 -9.671875 -9.671875q-6.390625 -3.28125 -18.203125 -3.28125q-9.515625 0 -18.375015 1.140625q-8.84375 1.140625 -15.734375 2.453125q-8.203125 1.640625 -15.09375 3.609375l-5.25 -22.625q8.203125 -1.96875 17.71875 -3.609375q8.203125 -1.640625 19.015625 -2.78125q10.82814 -1.15625 23.29689 -1.15625q16.71875 0 27.046875 4.921875q10.34375 4.921875 16.078125 13.28125q5.75 8.359375 7.875 19.03125q2.140625 10.65625 2.140625 22.46875l0 78.71875q0 4.59375 0.15625 9.671875q0.171875 5.078125 0.65625 10.0q0.5 4.921875 1.140625 10.171875l-25.25 2.625l-3.28125 -18.046875zm72.81238 -230.25l26.25 -2.953125l0 147.92188l73.140625 -64.28125l36.078125 0l-71.5 62.640625l74.125 102.34375l-33.125 0l-60.359375 -85.609375l-18.359375 16.078125l0 69.53125l-26.25 0l0 -245.67188zm278.14368 241.73438q-7.53125 2.296875 -15.578125 3.9375q-8.03125 1.640625 -17.71875 2.953125q-9.671875 1.3125 -20.15625 1.3125q-16.40625 0 -30.515625 -4.59375q-14.09375 -4.59375 -24.59375 -14.75q-10.5 -10.171875 -16.5625 -26.40625q-6.0625 -16.25 -6.0625 -39.859375q0 -21.3125 5.890625 -37.546875q5.90625 -16.25 16.234375 -27.234375q10.34375 -10.984375 24.28125 -16.5625q13.9375 -5.578125 30.34375 -5.578125q16.0625 0 27.875 6.234375q11.8125 6.234375 19.515625 16.890625q7.703125 10.65625 11.46875 24.9375q3.78125 14.265625 3.78125 30.0l-4.921875 14.4375l-105.9375 0q0 10.171875 2.625 20.34375q2.625 10.15625 9.015625 18.359375q6.40625 8.203125 16.734375 13.28125q10.328125 5.078125 25.75 5.078125q9.828125 0 18.03125 -1.140625q8.203125 -1.140625 14.265625 -2.609375q6.078125 -1.484375 11.328125 -3.453125l4.90625 21.96875zm-19.015625 -92.828125q0 -2.296875 -0.984375 -10.15625q-0.984375 -7.875 -4.59375 -16.40625q-3.609375 -8.53125 -11.15625 -15.25q-7.53125 -6.71875 -20.0 -6.71875q-13.78125 0 -22.640625 5.734375q-8.84375 5.734375 -14.09375 13.609375q-5.25 7.875 -7.21875 16.078125q-1.96875 8.1875 -1.96875 13.109375l82.65625 0zm63.296143 -41.65625q0 -7.53125 -1.640625 -23.609375l24.28125 -3.28125l2.625 23.9375l0.328125 0q5.90625 -7.53125 11.46875 -13.109375q5.578125 -5.578125 11.640625 -9.671875q6.078125 -4.109375 11.65625 -4.109375q7.546875 -0.328125 20.984375 1.640625l-5.890625 25.25q-10.828125 -1.96875 -15.09375 -1.640625q-5.578125 0 -11.8125 5.25q-6.234375 5.25 -10.828125 11.15625q-5.890625 7.21875 -11.46875 16.40625l0 110.203125l-26.25 0l0 -138.42188z"
            fill-rule="nonzero" />
        <path fill="#f2a113"
            d="m784.73676 202.07202l27.875 0l30.84375 74.453125q4.578125 10.828125 8.34375 21.65625q3.78125 10.8125 6.734375 19.34375q3.609375 10.171875 6.234375 19.6875l0.328125 0q2.953125 -9.515625 6.5625 -19.6875q2.953125 -8.53125 6.890625 -19.34375q3.9375 -10.828125 8.1875 -21.65625l28.546875 -74.453125l27.546875 0l-78.0625 196.79688q-4.59375 12.140625 -11.984375 20.984375q-7.375 8.859375 -14.25 14.765625q-8.203125 6.890625 -17.0625 11.8125l-12.796875 -22.625q6.890625 -3.28125 12.796875 -8.203125q5.25 -4.265625 10.5 -10.671875q5.25 -6.390625 8.53125 -15.25l10.15625 -26.890625l-65.921875 -160.71875z"
            fill-rule="nonzero" />
    </g>
</svg>